<?xml version="1.0" encoding="UTF-8" standalone="no"?>
<!-- Created with Inkscape (http://www.inkscape.org/) -->

<svg
   xmlns:dc="http://purl.org/dc/elements/1.1/"
   xmlns:cc="http://creativecommons.org/ns#"
   xmlns:rdf="http://www.w3.org/1999/02/22-rdf-syntax-ns#"
   xmlns:svg="http://www.w3.org/2000/svg"
   xmlns="http://www.w3.org/2000/svg"
   xmlns:sodipodi="http://sodipodi.sourceforge.net/DTD/sodipodi-0.dtd"
   xmlns:inkscape="http://www.inkscape.org/namespaces/inkscape"
   width="210mm"
   height="297mm"
   viewBox="0 0 210 297"
   version="1.1"
   id="svg8"
   inkscape:version="0.92.3 (2405546, 2018-03-11)"
   sodipodi:docname="drawing.svg">
  <defs
     id="defs2" />
  <sodipodi:namedview
     id="base"
     pagecolor="#ffffff"
     bordercolor="#666666"
     borderopacity="1.0"
     inkscape:pageopacity="0.0"
     inkscape:pageshadow="2"
     inkscape:zoom="0.35"
     inkscape:cx="-118.57143"
     inkscape:cy="674.28571"
     inkscape:document-units="mm"
     inkscape:current-layer="layer1"
     showgrid="false"
     inkscape:window-width="1920"
     inkscape:window-height="1015"
     inkscape:window-x="3000"
     inkscape:window-y="419"
     inkscape:window-maximized="1" />
  <metadata
     id="metadata5">
    <rdf:RDF>
      <cc:Work
         rdf:about="">
        <dc:format>image/svg+xml</dc:format>
        <dc:type
           rdf:resource="http://purl.org/dc/dcmitype/StillImage" />
        <dc:title></dc:title>
      </cc:Work>
    </rdf:RDF>
  </metadata>
  <g
     inkscape:label="Layer 1"
     inkscape:groupmode="layer"
     id="layer1">
    <path
       style="fill:none;stroke:#000000;stroke-width:0.26458332px;stroke-linecap:butt;stroke-linejoin:miter;stroke-opacity:1"
       d="m 98.273808,44.511904 c -1.259919,1.259922 -2.519841,2.519841 -3.779761,3.779763 -0.503968,0.251984 -1.061143,0.417878 -1.511906,0.755952 -0.855263,0.641445 -1.378331,1.674839 -2.267857,2.267857 -0.468821,0.312547 -1.113483,0.357529 -1.511903,0.755952 -0.398423,0.398423 -0.503968,1.007936 -0.755955,1.511906 -0.503967,0.503968 -1.007935,1.007935 -1.511903,1.511903 -1.259922,1.259922 -2.519841,2.519842 -3.779763,3.779764 -0.503968,0.503967 -0.941729,1.084273 -1.511904,1.511903 -0.450762,0.338071 -1.043082,0.443404 -1.511905,0.755951 -0.296508,0.197673 -0.503968,0.503971 -0.755952,0.755955 -0.251984,0.251984 -0.596582,0.437213 -0.755952,0.755951 -0.112691,0.22538 0.112689,0.530572 0,0.755952 -0.318738,0.637476 -1.11656,0.918887 -1.511905,1.511906 -0.312547,0.46882 -0.443405,1.043083 -0.755952,1.511903 -0.197673,0.296511 -0.643263,0.41788 -0.755952,0.755954 -0.159369,0.478105 0.159367,1.033799 0,1.511904 -0.112691,0.338074 -0.643263,0.41788 -0.755954,0.755954 -0.143343,0.430032 0,3.067775 0,3.77976 0,0.786133 -0.148661,3.94107 0,4.535715 0.136657,0.54663 0.577773,0.977366 0.755954,1.511904 0.07969,0.239053 -0.112691,0.530571 0,0.755954 0.159367,0.318736 0.558279,0.459441 0.755952,0.755952 0.312547,0.46882 0.443405,1.043082 0.755952,1.511903 0.197672,0.29651 0.503967,0.50397 0.755951,0.755954 0.251987,0.251984 0.459444,0.558279 0.755954,0.755952 0.468821,0.312547 1.113483,0.357531 1.511904,0.755951 1.83606,1.83606 -0.224796,1.110057 1.511905,2.267858 0.937644,0.625096 2.086166,0.886809 3.02381,1.511906 0.593018,0.395343 0.941728,1.084273 1.511905,1.511903 0.726832,0.545126 1.455233,1.105593 2.267855,1.511906 0.225383,0.112691 0.503971,0 0.755955,0 0.503967,0.251984 1.043082,0.443404 1.511903,0.755951 0.29651,0.197673 0.437216,0.596586 0.755954,0.755952 0.275524,0.137763 3.344183,0 3.779761,0 1.259919,0 2.519841,0 3.779761,0 0.50397,0 1.00794,0 1.51191,0 0.25198,0 0.51149,0.06112 0.75595,0 0.77305,-0.193262 1.55514,-0.399592 2.26785,-0.755952 0.31874,-0.159369 0.45945,-0.558278 0.75596,-0.755951 0.46882,-0.31255 1.04308,-0.443405 1.5119,-0.755952 0.59302,-0.395346 0.91889,-1.11656 1.51191,-1.511906 0.46882,-0.312547 1.04308,-0.443404 1.5119,-0.755951 0.29651,-0.197673 0.50397,-0.503971 0.75595,-0.755955 0.50397,-0.503967 1.08428,-0.941728 1.51191,-1.511903 0.33807,-0.450762 0.41788,-1.061143 0.75595,-1.511906 0.85526,-1.140349 2.29043,-1.801505 3.02381,-3.023809 0.40997,-0.683286 0.39959,-1.555139 0.75595,-2.267857 0.15937,-0.318739 0.54214,-0.470863 0.75596,-0.755952 0.54512,-0.726834 1.04446,-1.488789 1.5119,-2.267857 0.28989,-0.483159 0.50397,-1.007936 0.75595,-1.511904 0.25199,-0.50397 0.6193,-0.965276 0.75595,-1.511906 0.12223,-0.48892 -0.12223,-1.022984 0,-1.511905 0.13666,-0.54663 0.57778,-0.977366 0.75596,-1.511904 0.0797,-0.239053 0,-0.503967 0,-0.755951 0,-0.503971 0.15937,-1.033799 0,-1.511906 -0.11269,-0.338071 -0.55828,-0.459444 -0.75596,-0.755952 -0.31254,-0.468823 -0.57777,-0.977365 -0.75595,-1.511906 -0.15937,-0.478107 0.15937,-1.033798 0,-1.511903 -0.85498,-2.564945 -1.6146,-1.269452 -2.26785,-4.535715 -0.0988,-0.494181 0.22538,-1.061143 0,-1.511906 -0.27094,-0.541872 -2.38379,-2.383782 -3.02381,-3.023809 -0.39799,-0.397981 -2.06599,-1.864114 -2.26786,-2.267857 -0.11269,-0.22538 0.17818,-0.577774 0,-0.755952 -0.17818,-0.178181 -0.53057,0.112691 -0.75595,0 -0.31874,-0.159369 -0.43722,-0.596582 -0.75596,-0.755952 -0.22538,-0.112691 -0.53057,0.112689 -0.75595,0 -0.31874,-0.159369 -0.41788,-0.643262 -0.75595,-0.755954 -0.47811,-0.159366 -1.0338,0.159369 -1.51191,0 -0.33807,-0.112688 -0.41788,-0.64326 -0.75595,-0.755951 -0.47811,-0.15937 -1.00793,0 -1.5119,0 -0.75596,0 -1.51191,0 -2.26786,0 -1.76389,0 -3.527778,0 -5.291665,0 -0.503971,0 -1.022985,-0.12223 -1.511906,0 -0.546629,0.136657 -0.977366,0.577773 -1.511906,0.755951 -0.717158,0.239054 -1.534475,-0.183345 -2.267855,0 -0.546632,0.136658 -0.977365,0.577773 -1.511906,0.755954 -1.079664,0.359887 -1.511906,-0.991486 -1.511906,0.755952"
       id="path4518"
       inkscape:connector-curvature="0" />
    <path
       style="fill:none;stroke:#000000;stroke-width:0.26458332px;stroke-linecap:butt;stroke-linejoin:miter;stroke-opacity:1"
       d="m 89.202381,91.380952 c 3.275793,0.503968 6.65961,0.537204 9.827379,1.511903 0.157861,0.04857 0,3.367786 0,3.779763 0,3.275793 0,6.551582 0,9.827382 0,0.29558 0.108682,4.96562 0,5.29167 -0.112689,0.33807 -0.643261,0.41787 -0.755952,0.75595 -0.159369,0.4781 0,1.00793 0,1.5119 0,0.63303 0.143719,3.20489 0,3.77976 -0.136657,0.54663 -0.619294,0.96528 -0.755952,1.51191 -0.296452,1.18581 0.296453,2.59395 0,3.77976 -0.136657,0.54663 -0.645451,0.95939 -0.755951,1.5119 -0.198467,0.99233 0,3.33384 0,4.53572 0,0.50397 0.122229,1.02298 0,1.51191 -0.13666,0.54662 -0.619297,0.96527 -0.755955,1.5119 -0.305575,1.2223 0.247092,2.54431 0,3.77976 -0.1105,0.55251 -0.645448,0.95939 -0.755951,1.51191 -0.242292,1.21146 0.242292,2.5683 0,3.77976 -0.156274,0.78137 -0.599678,1.48649 -0.755952,2.26786 -0.09884,0.49418 0,1.00793 0,1.5119 -0.251984,0.75595 -0.562689,1.49481 -0.755954,2.26786 -0.06111,0.24446 0,0.50396 0,0.75595 0,0.75595 0.12428,1.52219 0,2.26786 -0.261998,1.572 -1.249902,2.96371 -1.511903,4.53571 -0.124278,0.74567 0.148254,1.52659 0,2.26786 -0.110504,0.55251 -0.619295,0.96527 -0.755952,1.5119 -0.122232,0.48892 0.12223,1.02299 0,1.51191 -0.273317,1.09326 -1.238591,1.93055 -1.511906,3.02381 -0.296452,1.1858 0.296453,2.59395 0,3.77976 -0.136657,0.54663 -0.619294,0.96527 -0.755951,1.5119 -0.122233,0.48892 0.122229,1.02299 0,1.51191 -0.136658,0.54663 -0.619295,0.96527 -0.755955,1.5119 -0.183343,0.73339 0,1.51191 0,2.26786 0,1.76389 0,3.52778 0,5.29167 -4.031745,2.01587 -8.06349,4.03175 -12.095236,6.04762 -1.007936,0.50397 -2.086166,0.88681 -3.023809,1.5119 -0.593018,0.39535 -0.94173,1.08428 -1.511905,1.51191 -0.450763,0.33807 -1.113483,0.35753 -1.511905,0.75595 -0.398421,0.39842 -0.443404,1.04308 -0.755952,1.5119 -0.197673,0.29651 -0.596584,0.43722 -0.755952,0.75596 -0.112691,0.22538 0,0.50396 0,0.75595 -0.251984,0.25198 -0.596584,0.43721 -0.755953,0.75595 -0.237566,0.47513 0.237567,2.54868 0,3.02381 -0.159368,0.31874 -0.503968,0.50397 -0.755952,0.75595 -0.864924,0.86493 -1.054244,0.89488 -1.511905,2.26786 -0.07968,0.23905 0.07968,0.5169 0,0.75595 -0.17818,0.53454 -0.577773,0.97737 -0.755952,1.51191 -0.159369,0.4781 0.225381,1.06114 0,1.5119 -0.159369,0.31874 -0.596584,0.43722 -0.755953,0.75595 -0.11269,0.22539 0.112691,0.53058 0,0.75596 -0.159368,0.31873 -0.596583,0.43721 -0.755952,0.75595 -0.112691,0.22538 0.112691,0.53057 0,0.75595 -0.318738,0.63748 -1.193167,0.87443 -1.511905,1.51191 -0.11269,0.22538 0.112691,0.53057 0,0.75595 -0.934132,1.86826 -0.755952,-0.26094 -0.755952,1.5119"
       id="path4520"
       inkscape:connector-curvature="0" />
    <path
       style="fill:none;stroke:#000000;stroke-width:0.26458332px;stroke-linecap:butt;stroke-linejoin:miter;stroke-opacity:1"
       d="m 88.446424,179.07143 c 2.26786,-0.25199 4.521761,-0.75596 6.803575,-0.75596 0.04862,0 2.08452,2.08452 2.267857,2.26786 0.251984,0.25199 0.437214,0.59658 0.755952,0.75595 0.225383,0.1127 0.577773,-0.17818 0.755952,0 0.398422,0.39842 0.443404,1.04309 0.755954,1.51191 0.395346,0.59302 1.116556,0.91888 1.511906,1.5119 2.54595,3.81893 0.006,0.0175 0.75595,2.26786 0.96762,2.90286 0.54429,0.12095 1.5119,3.02381 0.0797,0.23905 -0.0611,0.51149 0,0.75595 0.19327,0.77305 0.56269,1.49481 0.75596,2.26786 0.37797,1.5119 -0.75596,0 0,2.26786 0.11269,0.33807 0.64326,0.41788 0.75595,0.75595 0.15937,0.47811 -0.15937,1.0338 0,1.5119 0.11269,0.33808 0.59658,0.43722 0.75595,0.75596 0.11269,0.22538 0,0.50396 0,0.75595 0.25199,0.50397 0.44341,1.04308 0.75595,1.5119 0.19768,0.29651 0.55829,0.45945 0.75596,0.75595 0.31254,0.46883 0.4434,1.04309 0.75595,1.51191 1.15323,1.72985 0.59839,-0.47269 1.5119,2.26786 0.75012,2.25034 -1.78999,-1.55107 0.75596,2.26786 0.19767,0.2965 0.59658,0.43721 0.75595,0.75595 0.11269,0.22538 -0.11269,0.53057 0,0.75595 0.45357,0.90714 1.81428,1.36071 2.26786,2.26786 0.50396,1.00793 -0.75596,0.75595 0.75595,0.75595"
       id="path4522"
       inkscape:connector-curvature="0" />
    <path
       style="fill:none;stroke:#000000;stroke-width:0.26458332px;stroke-linecap:butt;stroke-linejoin:miter;stroke-opacity:1"
       d="m 94.494045,145.05357 c -1.763888,-2.51984 -3.234024,-5.27326 -5.291664,-7.55952 -0.337138,-0.3746 -1.033799,0.15936 -1.511906,0 -0.464958,-0.15499 -3.237564,-3.45445 -3.779761,-3.77977 -0.683289,-0.40997 -1.584571,-0.34598 -2.267858,-0.75595 -0.916728,-0.55003 -1.511905,-1.5119 -2.267857,-2.26785 -1.007935,-1.00794 -2.015874,-2.01588 -3.023809,-3.02381 -0.503968,-0.50397 -1.084273,-0.94174 -1.511906,-1.51191 -0.338071,-0.45076 -0.41788,-1.06114 -0.755952,-1.51191 -0.42763,-0.57017 -1.007935,-1.00793 -1.511905,-1.5119 -1.007936,-1.00794 -2.015871,-2.01587 -3.02381,-3.02381 -0.251983,-0.25198 -0.558278,-0.45944 -0.755951,-0.75595 -1.302565,-1.95385 -0.209341,-1.06996 -1.511906,-3.02381 -0.741574,-1.11236 -2.282232,-1.91145 -3.023809,-3.02381 -1.665486,-0.38069 -0.399592,-1.55514 -0.755952,-2.26786 -0.159369,-0.31874 -0.596582,-0.43721 -0.755951,-0.75595 -0.112692,-0.22538 0,-0.50397 0,-0.75595 0,-0.25198 0,-0.50397 0,-0.75596"
       id="path4524"
       inkscape:connector-curvature="0" />
    <path
       style="fill:none;stroke:#000000;stroke-width:0.26458332px;stroke-linecap:butt;stroke-linejoin:miter;stroke-opacity:1"
       d="m 94.494045,145.05357 c 8.182745,-8.18274 1.767207,-2.72342 6.047625,-5.29167 1.7748,-1.06488 2.05175,-1.57665 3.77976,-2.26785 0.73985,-0.29594 1.58457,-0.34598 2.26785,-0.75596 1.22231,-0.73338 1.88346,-2.16854 3.02381,-3.02381 0.45077,-0.33807 1.04309,-0.4434 1.51191,-0.75595 0.29651,-0.19767 0.45944,-0.55828 0.75595,-0.75595 0.46882,-0.31255 1.11348,-0.35753 1.51191,-0.75595 0.17817,-0.17818 -0.22539,-0.64327 0,-0.75595 0.29687,-0.14844 4.83846,0.0906 5.29166,0 2.44231,-0.48847 0.5815,-1.02345 3.02381,-1.51191 0.74127,-0.14825 1.52219,0.12428 2.26786,0 0.786,-0.131 1.49481,-0.56269 2.26786,-0.75595 0.24446,-0.0611 0.53057,0.11269 0.75595,0 0.63747,-0.31874 0.83576,-1.28653 1.5119,-1.51191 0.40641,-0.13546 2.38379,0 3.02381,0"
       id="path4526"
       inkscape:connector-curvature="0" />
  </g>
</svg>
